<svg xmlns="http://www.w3.org/2000/svg" viewBox="0 0 321.41 385.58">
    <defs>
        <style>
            .path-1{
                stroke: #e6e6e6;
                stroke-width: 4;
                stroke-dasharray: 2272;
                fill: transparent;
                animation: logo 2s ease-in forwards;
            }
            .path-2{
                fill: transparent;
                stroke: #e6e6e6;
                stroke-width: 4;
                stroke-dasharray: 2272;
                animation: logo 2s ease-in forwards;
            }
            .group-1{
                fill:rgb(255, 255, 255);
            }
            @keyframes logo {
                from {
                    stroke-dashoffset: 2272;
                }
                to {
                    stroke-dashoffset: 0;
                }
            }
        </style>
    </defs>
    <g class="group-1">
        <path class="path-1" d="M249.63,145.55c10.56-47.27,22.19-94.39,22.19-94.39s-25.64,57.51-48.91,113C232.22,157.61,241.18,151.37,249.63,145.55Z"/>
        <path class="path-2" d="M318.62,117.65c.94-3.71,1.88-7.41,2.79-11.12a49.94,49.94,0,0,0-9.16-.51c-1.39-.13-8.61,3.94-19.71,11,10.21-38.61,19.66-71.74,22.18-79.25,8-34.87-51.46-39.34-64.35-37.32-1.11,15.29-44.51,116.34-82.08,203.51C124.65,236.53,82.61,270.29,61.2,293c11.28-53.92,112.38-226,116.54-245.4,4.95-17-47.31-41.22-61.94-38.23,8.45,10.82-14.5,78.11-41,109.38l23.38-12.61L.44,323.75A35,35,0,0,0,0,328.63a31.22,31.22,0,0,0,.73,7.68c-2.93,9,29.63,30.89,39.38,27.91,29.78-37.48,68.13-76.1,107.18-111.57-18.82,43.84-32.83,77.15-33.45,82.17-2.62,13.35,9.06,16.63,3.56,29.68-2.26,5.36,2.35,19.74,6.2,21.08C146,347.51,183.93,290,205.51,272.12c-7.7-12-23.59,13.32-19.5-9,.94-8.38,10.1-33.18,22.11-63C220.54,190,232.57,180.34,244,171.47c-6.52,30.62-11.5,57.42-11.15,66.32,1,5.22,29.25,41,29.25,19.41,0-1.07.05-2.29.14-3.62,3.75-19.75,19.87-69.4,37.24-92.9A175.56,175.56,0,0,0,277.55,176c2.9-12,6-24.35,9.14-36.58C299.79,130,310.71,122.58,318.62,117.65Zm-69,27.9c-8.45,5.82-17.41,12.07-26.72,18.65,23.26-55.53,48.91-113,48.91-113S260.19,98.28,249.63,145.55Z"/>
    </g>
</svg>
