<svg xmlns="http://www.w3.org/2000/svg" viewBox="0 0 600.76 62.5">
    <defs>
        <style>
            .cls-1{
                stroke: #e6e6e6;
                stroke-width: 1;
                fill: transparent;
            }
            .cls-2{
                stroke: #e6e6e6;
                stroke-width: 1;
                fill: #e6e6e6;
            }
        </style>
    </defs>
    <g id="Capa_2" data-name="Capa 2">
        <g id="Capa_1-2" data-name="Capa 1">
            <path class="cls-1" d="M3.24,61.06H0V1.66H3.24Z"/>
            <path class="cls-1" d="M37.73,27.79v20c0,3.38.07,6.77-2,9.58a12.44,12.44,0,0,1-9.93,4.46,12.44,12.44,0,0,1-9.94-4.46c-2.09-2.81-2-6.2-2-9.58v-20h3.24v18.8c0,6.41.72,12.17,8.72,12.17S34.49,53,34.49,46.59V27.79Z"/>
            <path class="cls-1" d="M73.8,35.5a15.33,15.33,0,0,0-11.74-5.4c-7.85,0-13.75,6.7-13.75,14.26S54.14,58.76,62,58.76a16,16,0,0,0,12.24-6v4.39a18.3,18.3,0,0,1-12.09,4.61c-9.87,0-17.07-7.7-17.07-17.42A16.94,16.94,0,0,1,62.21,27.07,17.44,17.44,0,0,1,73.8,31.18Z"/>
            <path class="cls-1" d="M88.49,16.71a3,3,0,0,1-5.91,0,3,3,0,1,1,5.91,0ZM87.12,61.06H83.88V27.79h3.24Z"/>
            <path class="cls-1" d="M128.74,61.06H125.5v-6h-.15c-2.45,4.25-7.78,6.7-12.67,6.7-10.08,0-16.42-7.85-16.42-17.57s6.27-17.14,16.27-17.14a15.31,15.31,0,0,1,12.82,6.49h.15V27.79h3.24ZM99.5,44.21c0,7.63,5,14.55,13.11,14.55,8.49,0,13.1-6.92,13.1-14.91,0-7.7-5.26-13.75-13.32-13.75C104.76,30.1,99.5,37,99.5,44.21Z"/>
            <path class="cls-1" d="M143.06,33h.15a10.9,10.9,0,0,1,9.86-5.91c8.57,0,11,5.33,11,13.9V61.06h-3.25V41c0-6-.72-10.87-8-10.87-8.35,0-9.72,7.78-9.72,14.54V61.06h-3.24V27.79h3.24Z"/>
            <path class="cls-1" d="M204.33,61.06h-3.24v-6H201c-2.45,4.25-7.78,6.7-12.67,6.7-10.08,0-16.42-7.85-16.42-17.57s6.26-17.14,16.27-17.14A15.31,15.31,0,0,1,201,33.56h.14V27.79h3.24ZM175.1,44.21c0,7.63,5,14.55,13.11,14.55,8.49,0,13.1-6.92,13.1-14.91,0-7.7-5.26-13.75-13.32-13.75C180.36,30.1,175.1,37,175.1,44.21Z"/>
            <path class="cls-2" d="M246.89,61.06H237V57.82h-.14a12.22,12.22,0,0,1-9.58,4.39c-10.37,0-16.27-9.43-16.27-19,0-9.36,6-18.65,16.12-18.65A13.09,13.09,0,0,1,237,29V25.71h9.94ZM238,43.35c0-4.75-3.24-9.87-8.43-9.87s-8.35,5.12-8.35,9.87,3.17,9.93,8.35,9.93S238,48.1,238,43.35Z"/>
            <path class="cls-2" d="M254.15,0h10.09V29a13,13,0,0,1,9.79-4.4c10,0,16.13,9.37,16.13,18.65,0,9.65-5.91,19-16.35,19-3.6,0-7.41-1.58-9.43-4.46h-.14v3.31H254.15Zm25.78,43.35c0-4.75-3.16-9.87-8.35-9.87s-8.35,5.12-8.35,9.87,3.17,9.93,8.35,9.93S279.93,48.1,279.93,43.35Z"/>
            <path class="cls-2" d="M304.92,29.38h.14a10.11,10.11,0,0,1,8.78-4.83,11.61,11.61,0,0,1,4.18.87l-1.22,9.36a7.23,7.23,0,0,0-4.18-1.3c-7,0-7.7,6.2-7.7,11.67V61.06H294.83V25.71h10.09Z"/>
            <path class="cls-2" d="M354.67,61.06h-9.94V57.82h-.14A12.22,12.22,0,0,1,335,62.21c-10.37,0-16.27-9.43-16.27-19,0-9.36,6-18.65,16.13-18.65A13.08,13.08,0,0,1,344.73,29V25.71h9.94Zm-8.93-17.71c0-4.75-3.24-9.87-8.43-9.87S329,38.6,329,43.35s3.17,9.93,8.35,9.93S345.74,48.1,345.74,43.35Z"/>
            <path class="cls-2" d="M396.64,43.42c0,10.94-7.48,18.79-18.57,18.79s-18.58-7.85-18.58-18.79,7.56-18.87,18.58-18.87S396.64,32.4,396.64,43.42Zm-26.93,0c0,4.75,3.17,9.86,8.36,9.86s8.35-5.11,8.35-9.86-3.17-9.94-8.35-9.94S369.71,38.52,369.71,43.42Z"/>
            <path class="cls-2" d="M419.54,34.06a8,8,0,0,0-5.33-2.45,3.25,3.25,0,0,0-3.31,3c0,2.59,3.67,3.31,7.27,4.89s7.27,4,7.27,10.15c0,7.85-6.33,12.53-13.75,12.53a16.27,16.27,0,0,1-12.46-5.9l4.61-6c1.94,2.16,4.54,4.11,7.49,4.11a3.81,3.81,0,0,0,4-3.82c0-3.1-3.53-3.82-7.06-5.33s-7.05-3.6-7.05-9.29c0-6.62,4.61-11.45,11.23-11.45,3.75,0,8.5,1.16,11.38,3.68Z"/>
            <path class="cls-2" d="M442.22,61.06H432.13V34.2h-3.45V25.71h3.45v-12h10.09v12h6.19V34.2h-6.19Z"/>
            <path class="cls-2" d="M460.5,25.71V44.86c0,4,.65,8.86,5.76,8.86S472,48.89,472,44.86V25.71H482.1V46.52c0,10.29-5.32,15.69-15.84,15.69s-15.84-5.4-15.84-15.69V25.71Z"/>
            <path class="cls-2" d="M512.56,57.75h-.14a11.83,11.83,0,0,1-9.51,4.46c-10.37,0-16.27-9.43-16.27-19,0-9.36,6-18.65,16.13-18.65a12.49,12.49,0,0,1,9.65,4.4h.14V0h10.08V61.06H512.56Zm1-14.4c0-4.75-3.17-9.87-8.36-9.87s-8.35,5.12-8.35,9.87,3.17,9.93,8.35,9.93S513.57,48.1,513.57,43.35Z"/>
            <path class="cls-2" d="M541.36,10.87a6,6,0,1,1-6-6A6,6,0,0,1,541.36,10.87Zm-.94,50.19H530.34V25.71h10.08Z"/>
            <path class="cls-2" d="M582.76,43.42c0,10.94-7.49,18.79-18.58,18.79S545.6,54.36,545.6,43.42s7.56-18.87,18.58-18.87S582.76,32.4,582.76,43.42Zm-26.93,0c0,4.75,3.17,9.86,8.35,9.86s8.35-5.11,8.35-9.86-3.16-9.94-8.35-9.94S555.83,38.52,555.83,43.42Z"/>
            <path class="cls-2" d="M600.76,56a6.41,6.41,0,1,1-12.82,0,6.41,6.41,0,0,1,12.82,0Z"/>
        </g>
    </g>
</svg>
